<svg xmlns="http://www.w3.org/2000/svg" width="100" height="85" viewBox="0 0 100 85">
    <g fill="none" fill-rule="evenodd">
        <g>
            <g>
                <path fill="#F2F5F8" d="M10.614 72.363c13.084 15.049 48.668 17.825 71.287 1.342 22.618-16.483 20.343-42.122 10.78-56.44-9.564-14.318-31.615-19.64-56.842-2.703s-38.309 42.752-25.225 57.8M1.122 33.888c4.93 5.773 11.202-4.471 20.427-16.467 6.66-8.66 14.318-8.35 14.368-13.813.065-7.492-12.83-2.029-21.026 4.715C5.416 16.12-3.131 28.91 1.12 33.888" transform="translate(-236 -48) translate(236 48)"/>
                <path fill="#B4C7FF" stroke="#3C6DFF" stroke-linecap="round" stroke-linejoin="round" stroke-width="2" d="M24.004 37.965v28.56c0 3.353 2.7 6.07 6.035 6.07h42.25c3.334 0 6.036-2.717 6.036-6.07v-28.53" transform="translate(-236 -48) translate(236 48)"/>
                <path stroke="#3C6DFF" stroke-linecap="round" stroke-linejoin="round" stroke-width="2" d="M42.11 54.516L26.015 70.812M60.218 54.516L76.313 70.812" transform="translate(-236 -48) translate(236 48)"/>
                <path fill="#B4C7FF" stroke="#3C6DFF" stroke-linecap="round" stroke-linejoin="round" stroke-width="2" d="M78.325 41.282v.026c0 1.524-.884 2.95-2.361 3.803L57.96 55.54c-4.089 2.367-9.454 2.367-13.544 0l-18.05-10.453c-1.479-.856-2.362-2.282-2.362-3.806v-2.948c0-4.14 3.317-7.5 7.407-7.5h39.506c4.09 0 7.408 3.36 7.408 7.5v2.948z" transform="translate(-236 -48) translate(236 48)"/>
                <path fill="#FFF" stroke="#3C6DFF" stroke-linecap="round" stroke-linejoin="round" stroke-width="2" d="M51.667 50.186l-8.27-7.553v-.002h-6.204c-2.286 0-4.136-1.69-4.136-3.778V19.964c0-2.087 1.85-3.778 4.136-3.778h28.95c2.283 0 4.134 1.69 4.134 3.778v18.89c0 2.087-1.851 3.777-4.135 3.777h-6.204l-8.271 7.554" transform="translate(-236 -48) translate(236 48)"/>
                <g stroke="#3C6DFF" stroke-linecap="round" stroke-linejoin="round" stroke-width="1.5">
                    <path d="M7.468 3.734L0 3.734" transform="translate(-236 -48) translate(236 48) translate(38 26) rotate(-90 3.734 3.734)"/>
                    <path d="M7.468 3.734L0 3.734" transform="translate(-236 -48) translate(236 48) translate(38 26) rotate(-145 3.734 3.734)"/>
                    <path d="M7.468 3.734L0 3.734" transform="translate(-236 -48) translate(236 48) translate(38 26) scale(1 -1) rotate(35 15.577 0)"/>
                </g>
                <g stroke="#3C6DFF" stroke-linecap="round" stroke-linejoin="round" stroke-width="1.5">
                    <path d="M7.468 3.734L0 3.734" transform="translate(-236 -48) translate(236 48) translate(48 26) rotate(-90 3.734 3.734)"/>
                    <path d="M7.468 3.734L0 3.734" transform="translate(-236 -48) translate(236 48) translate(48 26) rotate(-145 3.734 3.734)"/>
                    <path d="M7.468 3.734L0 3.734" transform="translate(-236 -48) translate(236 48) translate(48 26) scale(1 -1) rotate(35 15.577 0)"/>
                </g>
                <g stroke="#3C6DFF" stroke-linecap="round" stroke-linejoin="round" stroke-width="1.5">
                    <path d="M7.468 3.734L0 3.734" transform="translate(-236 -48) translate(236 48) translate(58 26) rotate(-90 3.734 3.734)"/>
                    <path d="M7.468 3.734L0 3.734" transform="translate(-236 -48) translate(236 48) translate(58 26) rotate(-145 3.734 3.734)"/>
                    <path d="M7.468 3.734L0 3.734" transform="translate(-236 -48) translate(236 48) translate(58 26) scale(1 -1) rotate(35 15.577 0)"/>
                </g>
            </g>
        </g>
    </g>
</svg>
