<svg width="64" height="64" viewBox="0 0 64 64" fill="none" xmlns="http://www.w3.org/2000/svg">
<g filter="url(#filter0_d_780_12024)">
<circle cx="30" cy="28" r="24" fill="url(#paint0_linear_780_12024)"/>
</g>
<path d="M22 20H38V32H23.17L22 33.17V20ZM22 18C20.9 18 20.01 18.9 20.01 20L20 38L24 34H38C39.1 34 40 33.1 40 32V20C40 18.9 39.1 18 38 18H22ZM24 28H32V30H24V28ZM24 25H36V27H24V25ZM24 22H36V24H24V22Z" fill="white"/>
<defs>
<filter id="filter0_d_780_12024" x="0" y="0" width="64" height="64" filterUnits="userSpaceOnUse" color-interpolation-filters="sRGB">
<feFlood flood-opacity="0" result="BackgroundImageFix"/>
<feColorMatrix in="SourceAlpha" type="matrix" values="0 0 0 0 0 0 0 0 0 0 0 0 0 0 0 0 0 0 127 0" result="hardAlpha"/>
<feOffset dx="2" dy="4"/>
<feGaussianBlur stdDeviation="4"/>
<feComposite in2="hardAlpha" operator="out"/>
<feColorMatrix type="matrix" values="0 0 0 0 0.00784314 0 0 0 0 0.517647 0 0 0 0 0.780392 0 0 0 0.04 0"/>
<feBlend mode="normal" in2="BackgroundImageFix" result="effect1_dropShadow_780_12024"/>
<feBlend mode="normal" in="SourceGraphic" in2="effect1_dropShadow_780_12024" result="shape"/>
</filter>
<linearGradient id="paint0_linear_780_12024" x1="11" y1="52" x2="40.0274" y2="10.9005" gradientUnits="userSpaceOnUse">
<stop stop-color="#659FFF"/>
<stop offset="0.433889" stop-color="#38BDF8"/>
<stop offset="1" stop-color="#75D9DA"/>
</linearGradient>
</defs>
</svg>
