<svg xmlns="http://www.w3.org/2000/svg" xmlns:xlink="http://www.w3.org/1999/xlink" width="232" height="232" viewBox="0 0 232 232">
    <defs>
        <path id="pkchgxx5qa" d="M0 0L232 0 232 232 0 232z"/>
        <path id="jfil6bkegb" d="M16.94 29.46l12.85.001c1.78.02 2.476.172 3.19.554.62.332 1.094.806 1.425 1.425.321.6.48 1.187.534 2.412l.013.387.01.823v6.513l-.01.823c-.037 1.495-.194 2.139-.547 2.799-.33.62-.805 1.093-1.425 1.425-.6.32-1.186.479-2.411.533l-.388.014-.822.009h-12.42l-.822-.01c-1.495-.037-2.14-.193-2.8-.546-.619-.332-1.093-.806-1.424-1.425-.353-.66-.51-1.304-.547-2.8l-.01-.822v-6.513l.01-.823c.037-1.495.194-2.139.547-2.799.331-.619.805-1.093 1.425-1.425.66-.352 1.304-.51 2.799-.547l.822-.009zm7.193 3.937c-.483 0-.885.348-.968.807l-.016.177v2.953h-5.906v-2.953l-.016-.177c-.083-.46-.485-.807-.969-.807-.483 0-.885.348-.968.807l-.016.177v7.875l.016.177c.083.46.485.807.968.807.484 0 .886-.348.969-.807l.016-.177v-2.953h5.906v2.953l.016.177c.083.46.485.807.968.807.484 0 .886-.348.969-.807l.016-.177v-7.875l-.016-.177c-.083-.46-.485-.807-.969-.807zm5.907 0c-.484 0-.885.348-.969.807l-.016.177v7.875l.016.177c.084.46.485.807.969.807.483 0 .885-.348.968-.807l.016-.177v-7.875l-.016-.177c-.083-.46-.485-.807-.968-.807z"/>
    </defs>
    <g fill="none" fill-rule="evenodd">
        <g>
            <g>
                <g>
                    <g transform="translate(-64 -40) translate(64 40)"/>
                    <path fill="#B4C7FF" d="M95.72 149.552l-38.764-4.472c-2.017-.233-5.888-.658-6.642 1.228-1.03 2.577 2.44 7.036 5.15 7.638l38.634 8.585 84.364 23.93-9.735-32.041c-8.112-19.469-35.692-22.714-47.049-22.714-11.356 0-17.846-4.867-19.468-3.244-1.623 1.622 1.622 6.489 6.49 9.734 4.866 3.245 16.223 6.49 16.223 6.49h-14.601" transform="translate(-64 -40) translate(64 40)"/>
                    <path fill="#B4C7FF" d="M189.433 214.776s-34.07 21.091-69.762 1.623l3.77-32.307c-.07-5.049-3.742-9.325-8.723-10.155l-35.783-5.963c-2.854-.476-5.68-1.113-8.463-1.908l-26.542-7.584c-1.868-.534-2.976-2.452-2.505-4.337.443-1.773 2.143-2.933 3.956-2.7l39.348 5.078c5.122.66 10.327.255 15.285-1.19l10.136-2.957c14.04-4.095 28.77-5.272 43.282-3.457l25.03 37.543 10.971 28.314z" transform="translate(-64 -40) translate(64 40)"/>
                    <path stroke="#FFF" stroke-width=".5" d="M149.28 147.93s-25.959-4.867-47.05 4.867c-15.865 7.323-55.16-1.622-55.16-1.622" transform="translate(-64 -40) translate(64 40)"/>
                    <path fill="#B4C7FF" d="M99.606 151.497s-25.959-6.49-32.448-9.734c-6.49-3.245-9.734-8.112 4.867-6.49 14.601 1.623 38.937 9.735 38.937 9.735l-11.356 6.49z" transform="translate(-64 -40) translate(64 40)"/>
                    <path stroke="#FFF" stroke-width=".5" d="M110.14 144.888s-14.196 2.84-17.441 9.734M86.007 147.93L97.363 149.552" transform="translate(-64 -40) translate(64 40)"/>
                </g>
                <g>
                    <g>
                        <g transform="translate(-64 -40) translate(64 40) translate(16.112 10) translate(44.888) rotate(-7 216.173 -32.574)">
                            <path fill="#0040FF" d="M5.025 25.94h68v47c0 1.657-1.343 3-3 3h-62c-1.657 0-3-1.343-3-3v-47z"/>
                            <path fill="#0037D1" d="M73.025 25.94L73.025 43.94 20.968 25.94z"/>
                            <rect width="78" height="12" x=".025" y="13.94" fill="#0040FF" rx="3"/>
                            <path fill="#B4C7FF" d="M33.025 25.94H45.025V75.94H33.025z"/>
                            <path fill="#789AFF" d="M33.025 25.94L45.025 25.94 45.025 33.94 33.025 29.94z"/>
                            <path fill="#B4C7FF" d="M32.025 13.94H46.025V25.939999999999998H32.025z"/>
                            <path fill="#B4C7FF" fill-rule="nonzero" d="M19.915 13.94c-.719 0-1.337-.51-1.473-1.216C17 5.242 19.307.94 25.281.94c4.99 0 9.729 3.038 14.24 8.962C44.092 3.978 48.796.94 53.67.94c5.821 0 8.195 4.26 7.054 11.727-.105.687-.665 1.205-1.346 1.267l-.137.006H19.915zm33.755-10c-3.439 0-6.997 2.096-10.647 6.399l-.305.363-.195.238h15.4l.027-.268c.419-4.552-.859-6.562-3.876-6.721l-.204-.008-.2-.003zm-28.39 0c-3.408 0-4.767 1.952-4.142 6.695l.043.305h15.345l-.198-.245c-3.52-4.307-7.018-6.518-10.477-6.737l-.297-.013-.273-.005z"/>
                        </g>
                        <path fill="#00CC6D" fill-rule="nonzero" d="M9.151 16.151c.47-.468 1.229-.468 1.698 0 .437.438.466 1.129.087 1.6l-.087.098-8 8c-.47.468-1.229.468-1.698 0-.437-.438-.466-1.129-.087-1.6l.087-.098 8-8z" transform="translate(-64 -40) translate(64 40) translate(16.112 10) translate(44.888)"/>
                        <path fill="#0040FF" fill-rule="nonzero" d="M73.151 1.151c.47-.468 1.229-.468 1.698 0 .437.438.466 1.129.087 1.6l-.087.098-8 8c-.47.468-1.229.468-1.698 0-.437-.438-.466-1.129-.087-1.6l.087-.098 8-8z" transform="translate(-64 -40) translate(64 40) translate(16.112 10) translate(44.888)"/>
                        <path fill="#00CC6D" fill-rule="nonzero" d="M9.151 16.151c.47-.468 1.229-.468 1.698 0 .437.438.466 1.129.087 1.6l-.087.098-8 8c-.47.468-1.229.468-1.698 0-.437-.438-.466-1.129-.087-1.6l.087-.098 8-8z" transform="translate(-64 -40) translate(64 40) translate(16.112 10) translate(44.888) matrix(-1 0 0 1 12 0)"/>
                        <path fill="#0040FF" fill-rule="nonzero" d="M73.151 1.151c.47-.468 1.229-.468 1.698 0 .437.438.466 1.129.087 1.6l-.087.098-8 8c-.47.468-1.229.468-1.698 0-.437-.438-.466-1.129-.087-1.6l.087-.098 8-8z" transform="translate(-64 -40) translate(64 40) translate(16.112 10) translate(44.888) matrix(-1 0 0 1 140 0)"/>
                        <path fill="#0040FF" fill-rule="nonzero" d="M25.151 2.151c.47-.468 1.229-.468 1.698 0 .437.438.466 1.129.087 1.6l-.087.098-6 6c-.47.468-1.229.468-1.698 0-.437-.438-.466-1.129-.087-1.6l.087-.098 6-6z" transform="translate(-64 -40) translate(64 40) translate(16.112 10) translate(44.888) matrix(-1 0 0 1 46 0)"/>
                        <path fill="#B4C7FF" fill-rule="nonzero" d="M88.151 16.151c.47-.468 1.229-.468 1.698 0 .437.438.466 1.129.087 1.6l-.087.098-6 6c-.47.468-1.229.468-1.698 0-.437-.438-.466-1.129-.087-1.6l.087-.098 6-6z" transform="translate(-64 -40) translate(64 40) translate(16.112 10) translate(44.888)"/>
                        <path fill="#789AFF" fill-rule="nonzero" d="M46.92.801c.62.029 1.109.524 1.142 1.132v.122L47.7 9.92c-.03.662-.592 1.174-1.254 1.144-.621-.029-1.11-.524-1.143-1.132v-.123l.363-7.863c.03-.663.592-1.174 1.254-1.144z" transform="translate(-64 -40) translate(64 40) translate(16.112 10) translate(44.888) matrix(-1 0 0 1 93.364 0)"/>
                        <g transform="translate(-64 -40) translate(64 40) translate(16.112 10) translate(44.888) rotate(10 -365.945 416.352)">
                            <rect width="42" height="27" x=".389" y="13.698" fill="#00CC6D" rx="8"/>
                            <path fill="#FFF" fill-rule="nonzero" d="M17.865 35.515v-3.67h.293c.407 0 .721-.096.943-.291.221-.195.332-.44.332-.737v-2.335h-1.568v-9.729h-4.17L6.389 29.038l.346 1.807c.053.278.216.514.491.709.274.195.615.292 1.023.292h5.499v3.67h4.117zm-4.022-7.45h-2.659l2.659-3.724v3.725zm16.285 7.633c1.096 0 2.152-.152 3.17-.457 1.017-.304 1.996-.812 2.935-1.525V26.52H29.24v2.398c0 .296.122.552.366.77.243.217.6.326 1.07.326h.86v1.773c-.226.07-.465.13-.717.182-.253.052-.526.078-.822.078-1.235 0-2.209-.417-2.922-1.251-.713-.835-1.07-2.017-1.07-3.546 0-1.426.318-2.564.953-3.416.635-.852 1.543-1.277 2.726-1.277.609 0 1.139.073 1.591.221.452.148.948.387 1.487.717.191.14.374.23.548.274.174.043.348.065.522.065.295.018.547-.043.756-.182.209-.14.4-.33.574-.574l1.226-1.825c-.73-.73-1.652-1.339-2.765-1.825-1.113-.487-2.409-.73-3.887-.73-1.374 0-2.609.208-3.704.625-1.096.418-2.026 1.004-2.792 1.76-.765.756-1.352 1.66-1.76 2.712-.41 1.052-.614 2.203-.614 3.455 0 1.217.218 2.338.653 3.363.434 1.026 1.056 1.917 1.865 2.673.809.756 1.782 1.347 2.922 1.773 1.139.426 2.413.639 3.821.639z"/>
                            <path fill="#C0F4D7" fill-rule="nonzero" d="M34.52 7.416c7.628 0 13.83 6.1 13.997 13.688l.004.312v1.925c0 .552-.448 1-1 1-.513 0-.936-.386-.994-.884l-.006-.116v-1.925c0-6.525-5.209-11.834-11.696-11.996l-.304-.004h-2.132c-.552 0-1-.447-1-1 0-.513.386-.935.884-.993l.116-.007h2.132z"/>
                            <path fill="#C0F4D7" fill-rule="nonzero" d="M39.569 3.385l.88.101c6.61.76 11.694 6.2 12.005 12.846.026.551-.4 1.02-.952 1.045-.552.026-1.02-.4-1.046-.952-.26-5.567-4.45-10.141-9.94-10.914l-.296-.038-.88-.101c-.548-.063-.942-.559-.879-1.108.059-.51.49-.885.991-.886l.117.007zM47.033 1.491c.198-.473.718-.713 1.199-.573l.11.038.18.076c2.903 1.22 5.194 3.552 6.362 6.476.204.513-.045 1.094-.558 1.3-.513.204-1.095-.046-1.3-.559-.928-2.324-2.713-4.2-4.98-5.242l-.298-.13-.18-.077c-.51-.213-.749-.8-.535-1.309z"/>
                        </g>
                    </g>
                    <path fill="#B4C7FF" d="M1.34 84.78c3.166 1.814 7.544-10.104 17.04-16.545 6.618-4.49 16.751-7.096 23.375-8.109 5.793-.885 8.221-11.977-5.57-10.25-13.79 1.726-23.801 10.854-30.488 18.937-7.301 8.826-6.14 14.945-4.357 15.966" transform="translate(-64 -40) translate(64 40) translate(16.112 10)"/>
                    <path fill="#F0F5FE" d="M33.645 117.557c3.131-5.097-2.912-6.244-8.018-8.104-5.106-1.86-8.817-4.364-11.406-9.914-2.588-5.55-7.694-7.41-10.586-2.704-2.891 4.705 6.047 16.6 11.8 19.848 5.753 3.247 15.318 5.58 18.21.874" transform="translate(-64 -40) translate(64 40) translate(16.112 10)"/>
                    <path fill="#436FF5" d="M180.116 106.642c-1.626-6.466-11.378-1.617-24.381 3.233-9.388 3.5-15.695-.108-18.123 3.931-3.331 5.541 9.905 7.165 19.748 5.767 11.378-1.616 24.158-7.354 22.756-12.931" transform="translate(-64 -40) translate(64 40) translate(16.112 10)"/>
                    <path fill="#B4C7FF" d="M146.225 59.47c-1.08 3.242 10.306 2.378 17.677 7.698 5.137 3.708 9.195 10.967 11.23 15.968 1.78 4.373 12.094 2.234 8.198-8.32-3.896-10.554-13.753-15.296-22.11-17.728-9.126-2.654-14.387.555-14.995 2.381" transform="translate(-64 -40) translate(64 40) translate(16.112 10)"/>
                    <path fill="#B8C7FB" d="M26.81 81.677c0-2.232-1.82-4.041-4.064-4.041-2.244 0-4.063 1.81-4.063 4.04 0 2.232 1.82 4.042 4.063 4.042 2.244 0 4.064-1.81 4.064-4.041" transform="translate(-64 -40) translate(64 40) translate(16.112 10)"/>
                    <path fill="#F0F5FF" d="M84.683 114.718c0-2.761-2.24-5-5-5-2.761 0-5 2.239-5 5 0 2.76 2.239 5 5 5 2.76 0 5-2.24 5-5" transform="translate(-64 -40) translate(64 40) translate(16.112 10)"/>
                    <path fill="#FFD500" d="M152.798 42.731c0-3.57-2.91-6.465-6.501-6.465s-6.502 2.894-6.502 6.465c0 3.571 2.91 6.466 6.502 6.466 3.59 0 6.501-2.895 6.501-6.466" transform="translate(-64 -40) translate(64 40) translate(16.112 10)"/>
                    <g transform="translate(-64 -40) translate(64 40) translate(16.112 10) translate(30.701 57.906)">
                        <path fill="#FFD500" fill-rule="nonzero" d="M32.976 4c2.924 0 4.759.457 6.363 1.315 1.604.858 2.863 2.117 3.721 3.72.858 1.605 1.315 3.44 1.315 6.364v27.17l-.011 1.129c-.075 3.548-.524 4.995-1.304 6.454-.858 1.604-2.117 2.863-3.72 3.72l-.44.225c-1.477.713-3.155 1.09-7.144 1.09H17.619l-1.13-.01c-3.547-.076-4.995-.524-6.453-1.304-1.604-.858-2.863-2.117-3.721-3.721l-.224-.44c-.678-1.403-1.052-2.987-1.088-6.562L5 26.519c0-2.998.104-4.031.36-5.178.257-1.146.666-2.162 1.276-3.166l.219-.349c.561-.866 1.276-1.726 3.11-3.633l4.619-4.804c2.15-2.236 2.98-2.931 4.01-3.594 1.031-.664 2.085-1.112 3.277-1.395l.42-.093c.983-.201 2.06-.294 4.425-.306L32.976 4z" transform="rotate(10 24.687 29.594)"/>
                        <path fill="#FFD500" fill-rule="nonzero" d="M32.977 5.969l.555.006c2.163.048 3.594.389 4.879 1.076 1.26.674 2.239 1.652 2.913 2.913.687 1.285 1.028 2.716 1.076 4.879l.006.556v27.17l-.01 1.097c-.055 2.912-.355 4.216-1.072 5.557-.674 1.261-1.652 2.24-2.913 2.914-1.258.672-2.482.978-5.03 1.059l-.528.013-1.097.01H17.619l-1.097-.01c-2.913-.055-4.217-.355-5.558-1.072-1.26-.675-2.239-1.653-2.913-2.914-.673-1.257-.978-2.482-1.06-5.03l-.013-.527-.01-1.098.004-16.98.024-1.237c.028-.841.08-1.43.165-1.957l.039-.223.082-.4c.21-.937.538-1.753 1.037-2.574l.235-.372c.368-.553.818-1.112 1.607-1.972l.58-.621 5.609-5.838.9-.912c.805-.799 1.353-1.281 1.88-1.669l.176-.125.355-.238c.842-.542 1.69-.903 2.664-1.135.654-.155 1.272-.246 2.222-.296l.903-.033 1.275-.016 6.252-.001z" transform="rotate(10 24.687 29.594)"/>
                        <path fill="#F0F5FF" fill-rule="nonzero" d="M29.359 27.49l-12.894.004c-1.822.025-2.76.204-3.524.522l-.188.082-.364.182c-.962.514-1.718 1.27-2.232 2.232l-.182.364c-.369.802-.576 1.738-.604 3.712v7.462c.026 1.822.204 2.76.522 3.524l.082.188.182.363c.514.963 1.27 1.718 2.232 2.233l.364.182c.802.369 1.738.576 3.712.604l12.894.003c2.139 0 3.17-.181 3.998-.525l.188-.082.364-.182c.962-.515 1.718-1.27 2.232-2.233l.182-.363c.37-.802.576-1.738.604-3.712l.003-.475v-6.513c0-2.139-.18-3.17-.525-3.998l-.082-.188-.182-.364c-.514-.962-1.27-1.718-2.232-2.232l-.364-.182c-.802-.37-1.738-.576-3.712-.604l-.474-.003z" transform="rotate(10 23.15 38.319)"/>
                        <use fill="#0040FF" fill-rule="nonzero" transform="rotate(10 23.15 38.319)" xlink:href="#jfil6bkegb"/>
                    </g>
                </g>
            </g>
        </g>
    </g>
</svg>
