<svg width="232" height="232" xmlns="http://www.w3.org/2000/svg" xmlns:xlink="http://www.w3.org/1999/xlink">
    <defs>
        <path d="M6.273.048c-2.065 0-2.9.228-3.715.656a4.496 4.496 0 0 0-1.89 1.853C.232 3.356 0 4.175 0 6.2v9.048h1.59c2.23 0 3.037-.227 3.852-.654a4.505 4.505 0 0 0 1.89-1.854c.436-.799.668-1.592.668-3.777v-1.56h1.727c2.065 0 2.9-.227 3.715-.655a4.5 4.5 0 0 0 1.89-1.853c.436-.8.668-1.618.668-3.643V.048H6.273z" id="a"/>
        <path d="M0 .05v1.19c0 2.003.232 2.813.668 3.603a4.476 4.476 0 0 0 1.89 1.833c.815.423 1.65.648 3.715.648H16v-1.19c0-2.002-.232-2.813-.668-3.603a4.477 4.477 0 0 0-1.89-1.833c-.815-.422-1.65-.647-3.715-.647H0z" id="c"/>
    </defs>
    <g fill="none" fill-rule="evenodd">
        <path d="M0 0h232v232H0z"/>
        <path d="M183.636 41.406a1.385 1.385 0 0 1 2.074 1.827l-.116.13-9.23 9.231a1.385 1.385 0 0 1-2.074-1.827l.116-.13 9.23-9.231z" fill="#00CC6D" fill-rule="nonzero"/>
        <path d="M176.364 41.406a1.385 1.385 0 0 0-2.074 1.827l.116.13 9.23 9.231a1.385 1.385 0 0 0 2.074-1.827l-.116-.13-9.23-9.231z" fill="#00CC6D" fill-rule="nonzero"/>
        <path d="M31.319 97.551c2.78.894 4.223-9.16 10.582-15.78 4.432-4.614 11.928-8.34 16.943-10.233 4.386-1.657 4.441-10.74-6.063-7.095-10.505 3.644-16.82 12.452-20.708 19.89-4.246 8.12-2.32 12.715-.754 13.218M193.802 84.757c-2.444 1.598 4.462 9.047 5.604 18.155.796 6.348-1.026 14.518-2.71 19.607-1.473 4.45 5.551 10.21 9.33-.247 3.778-10.457.907-20.908-2.426-28.61-3.64-8.41-8.422-9.805-9.798-8.905M122.474 54.524c7.496-1.908 20.377 1.527 27.018 5.288 6.64 3.761 17.487 8.884 18.182 1.894.694-6.988-20.74-15.593-32.97-17.077-12.23-1.483-31.61 2.576-32.304 9.565-.695 6.99 12.577 2.236 20.074.33z" fill="#B4C7FF"/>
        <path d="M97.21 46.141a3.242 3.242 0 0 0-3.25-3.232 3.242 3.242 0 0 0-3.251 3.232 3.242 3.242 0 0 0 3.25 3.233 3.242 3.242 0 0 0 3.252-3.233" fill="#00CC6D"/>
        <path d="M132.401 159.785c0-2.857-2.328-5.173-5.201-5.173-2.873 0-5.201 2.316-5.201 5.173s2.328 5.172 5.201 5.172c2.873 0 5.201-2.315 5.201-5.172" fill="#789AFF"/>
        <path d="M28 115.785a8 8 0 0 0-8-8 8 8 0 0 0-8 8 8 8 0 0 0 8 8 8 8 0 0 0 8-8" fill="#00CC6D"/>
        <path d="M108.362 66.5c-12.135 1.83-25.008 9.017-38.617 21.563-20.414 18.82-18.705 23.81-18.705 50.499 0 17.792-1.093 40.868-3.278 69.229 6.577 8.804 17.896 13.206 33.955 13.206 16.06 0 29.435-3.174 40.126-9.522-6.366-33.181-8.205-53.628-5.518-61.342 4.03-11.571 10.761-32.989 5.518-56.324-3.496-15.557-7.99-24.66-13.48-27.309z" fill="#B4C7FF"/>
        <g transform="translate(72.474 63.2)">
            <rect fill="#0040FF" width="112.8" height="68" rx="12"/>
            <rect fill="#F0F5FF" x="52" y="45.6" width="50.4" height="9.6" rx="4.8"/>
            <rect fill="#F0F5FF" x="9.6" y="45.6" width="34.4" height="9.6" rx="4.8"/>
        </g>
        <path d="M62.162 116.896c16.797-15.156 26.729-23.793 29.795-25.91 4.6-3.178 5.526 10.009 0 17.96-3.684 5.3-7.275 11.288-10.771 17.965 1.482 4.378 1.482 10.956 0 19.735-1.483 8.779-4.86 15.397-10.13 19.854" stroke="#FFF" stroke-width=".8" fill="#B4C7FF"/>
        <path d="M85.762 99.625c4.904.523 7.356-1.593 7.356-6.348" stroke="#FFF" stroke-width=".8"/>
        <g transform="translate(158.074 83.2)">
            <mask id="b" fill="#fff">
                <use xlink:href="#a"/>
            </mask>
            <path fill="#FFF" mask="url(#b)" d="M-70.545 241.176H87.273V-33.806H-70.545z"/>
            <path fill="#FFF" mask="url(#b)" d="M-2.182 17.321h20.364V-2.024H-2.182z"/>
        </g>
        <g transform="translate(158.074 74.4)">
            <mask id="d" fill="#fff">
                <use xlink:href="#c"/>
            </mask>
            <path fill="#FFF" mask="url(#d)" d="M-70.545 242.233H87.273v-266.91H-70.545z"/>
            <path fill="#FFF" mask="url(#d)" d="M-2.182 8.778h20.364V-2.13H-2.182z"/>
        </g>
        <g transform="rotate(-34 118.077 -48.915)">
            <path d="M24.054 1.373c4.124 0 7.85 2.132 10.55 5.559 2.73 3.465 4.414 8.254 4.414 13.54 0 5.288-1.684 10.076-4.415 13.542-2.7 3.426-6.425 5.559-10.549 5.559l-8.201-.001c-4.104 0-7.804-2.075-10.504-5.422C2.609 30.752.896 26.046.82 20.839.82 15.455 2.45 10.642 5.104 7.143c2.648-3.49 6.32-5.672 10.389-5.767z" stroke="#FFD500" stroke-width=".8" fill="#FFEA8F"/>
            <path fill="#FFD500" fill-rule="nonzero" d="M10.844 16.848v.8h-9v-.8zM10.535 22.671v.8h-9v-.8zM10.135 28.773l.006.8-7.994.05-.006-.8zM13.938 33.787l.059.66-7.942.34-.058-.66zM11.045 11.305l.022.8-7.977.176-.023-.8zM6.896 6.581l.018-.8 8.982.15-.017.8z"/>
            <ellipse stroke="#FFD500" stroke-width=".8" fill="#FFD500" cx="23.938" cy="20.772" rx="14.6" ry="19.1"/>
            <ellipse stroke="#FFD500" stroke-width=".8" fill="#FFE05B" cx="24.352" cy="21.051" rx="10.1" ry="14.1"/>
        </g>
        <g transform="scale(-1 1) rotate(-34 154.356 374.135)">
            <path d="M16.04.703c2.752 0 5.235 1.471 7.036 3.826 1.835 2.399 2.964 5.714 2.964 9.374 0 3.6-1.093 6.866-2.875 9.255-1.753 2.35-4.175 3.852-6.871 3.94l-5.854.005c-2.752 0-5.235-1.472-7.036-3.827C1.569 20.877.44 17.562.44 13.903c0-3.6 1.093-6.867 2.875-9.256C5.067 2.297 7.49.796 10.186.707z" stroke="#FFD500" stroke-width=".8" fill="#FFEA8F"/>
            <path fill="#FFD500" fill-rule="nonzero" d="M6.729 10.456v.8H.702v-.8zM6.93 14.45v.8H.901v-.8zM6.868 19.109v.8l-5.563.003v-.8zM9.103 22.672v.8H3.077v-.8z"/>
            <path stroke="#FFD500" stroke-width=".8" fill="#FFEA8F" stroke-linecap="square" d="M11.929 1.123H6.702"/>
            <path fill="#FFD500" fill-rule="nonzero" d="m1.896 8.237.056-.798 4.707.327-.055.798z"/>
            <path stroke="#FFD500" stroke-width=".8" fill="#FFEA8F" stroke-linecap="square" d="M9.084 3.768h-6"/>
            <ellipse stroke="#FFD500" stroke-width=".8" fill="#FFEA8F" cx="15.793" cy="13.695" rx="10" ry="13.2"/>
            <ellipse stroke="#FFD500" stroke-width=".8" fill="#FFD500" cx="15.569" cy="14.026" rx="6.8" ry="9.6"/>
        </g>
        <path d="M195.95 138.082c-2.513-4.704-9.145.948-18.3 7.228-6.61 4.535-12.203 2.954-13.307 6.56-1.513 4.945 9.076 3.644 16.446.654 8.519-3.457 17.328-10.384 15.16-14.442" fill="#00CC6D"/>
        <path d="M46.886 23.888a.96.96 0 0 0-1.682.918l.058.106 9.333 14.8a.96.96 0 0 0 1.682-.918l-.058-.106-9.333-14.8zM32.298 44.313a.96.96 0 0 0-.834 1.725l.1.05 15.485 6.4a.96.96 0 0 0 .834-1.726l-.1-.05-15.485-6.4zM56.73 82.9a.96.96 0 0 0-1.269-.04l-.088.083-12 12.8a.96.96 0 0 0 1.313 1.396l.088-.082 12-12.8a.96.96 0 0 0-.044-1.357z" fill="#FFD500" fill-rule="nonzero"/>
        <path d="M62.902 149.265c3.347-5.475-3.113-6.708-8.571-8.706-5.459-1.998-9.426-4.688-12.193-10.65-2.767-5.963-8.225-7.961-11.316-2.906-3.091 5.055 6.464 17.834 12.614 21.323 6.15 3.489 16.374 5.995 19.466.939" fill="#789AFF"/>
    </g>
</svg>
