<svg width="232" height="232" viewBox="0 0 232 232" xmlns="http://www.w3.org/2000/svg">
    <g fill="none" fill-rule="evenodd">
        <path d="M0 0h232v232H0z"/>
        <g transform="translate(30 15)">
            <rect fill="#0040FF" x="18.859" y="25.076" width="70" height="42" rx="8"/>
            <path fill="#F0F5FE" d="M18.859 38.076h70v11h-70z"/>
            <g transform="translate(57.86 42.076)">
                <rect stroke="#FFD500" fill="#FFD500" width="70" height="42" rx="6"/>
                <rect fill="#0040FF" x="49" y="6" width="15" height="9" rx="4.5"/>
                <rect fill="#0040FF" x="33" y="29" width="31" height="5" rx="2.5"/>
                <rect fill="#0040FF" x="6" y="29" width="21" height="5" rx="2.5"/>
            </g>
            <path d="M2.69 45.433c3.83 1.603 4.197-3.012 7.312-9.713 3.116-6.701 16.207-19.446 4.585-22.265-11.621-2.82-18.773 29.1-11.897 31.978" fill="#789AFF"/>
            <path d="M35.62 12.733a1 1 0 0 1-1.192 1.602l-.094-.07L23.61 5.268a1 1 0 0 1 1.192-1.602l.093.07 10.725 8.998z" fill="#7C9BF8" fill-rule="nonzero"/>
            <path d="M34.757 2.872a1 1 0 0 1 .193 1.315l-.07.093-8.999 10.725a1 1 0 0 1-1.601-1.192l.07-.093 8.998-10.725a1 1 0 0 1 1.41-.123z" fill="#7C9BF8" fill-rule="nonzero"/>
            <path d="M49.683 93.73c1.806-5.702-4.336-5.353-9.74-5.923-5.405-.569-9.611-2.1-13.465-6.86-3.855-4.758-9.259-5.328-10.926-.062-1.667 5.265 9.883 14.644 16.25 16.403 6.369 1.76 16.213 1.708 17.88-3.557" fill="#00CC6D"/>
            <path d="M166.204 76.679c-3.14-5.88-11.43 1.184-22.875 9.035-8.261 5.668-15.254 3.692-16.633 8.199-1.892 6.182 11.344 4.556 20.557.818 10.649-4.321 21.66-12.98 18.951-18.052" fill="#436FF5"/>
            <path d="M146.01 50.227a1.2 1.2 0 0 1 1.785 1.6l-.087.097-8 8a1.2 1.2 0 0 1-1.785-1.6l.088-.097 8-8z" fill="#00CC6D" fill-rule="nonzero"/>
            <path d="M139.708 50.227a1.2 1.2 0 0 0-1.785 1.6l.088.097 8 8a1.2 1.2 0 0 0 1.784-1.6l-.087-.097-8-8z" fill="#00CC6D" fill-rule="nonzero"/>
            <path d="M119.365 10.904a1.2 1.2 0 0 1 2.056 1.231l-.067.113-7 10.364a1.2 1.2 0 0 1-2.057-1.231l.068-.113 7-10.364z" fill="#789AFF" fill-rule="nonzero"/>
            <path d="M126.63 26.623a1.2 1.2 0 0 1 1.559 1.82l-.1.085-7 5.364a1.2 1.2 0 0 1-1.56-1.82l.1-.085 7-5.364z" fill="#0040FF" fill-rule="nonzero"/>
            <path d="M70.769 6.807c0-3.571-2.91-6.466-6.502-6.466-3.59 0-6.502 2.895-6.502 6.466s2.911 6.466 6.502 6.466c3.591 0 6.502-2.895 6.502-6.466" fill="#00CC6D"/>
        </g>
        <path d="M164.15 180.697c-2.865-41.158-5.348-49.79-6.478-52.112-1.756-3.606-4.825-5.935-8.533-4.95a6.911 6.911 0 0 0-2.46 1.217l-.002-.033c-.215-3.83-3.526-6.788-7.356-6.573a6.945 6.945 0 0 0-4.733 2.252l-.06-1.08c-.216-3.83-3.527-6.787-7.357-6.572-2.246.126-4.186 1.321-5.368 3.057a3.588 3.588 0 0 1-.087-.374l-.094.135c-1.36-9.574-3.73-26.166-4.372-30.24-.917-5.817-1.475-17.918-7.18-12.563-5.707 5.355-2.304 51.668-2.304 51.668l-.29 8.933c.284 3.83-4.11 6.18-7.138 3.817 0 0-10.03-6.784-13.19-10.173-3.159-3.389-9.26-9.292-13.195-6.461-3.933 2.83 4.018 12.449 7.936 18.894 3.918 6.447 7.642 16.278 13.384 24.034 5.743 7.756 12.864 18.606 14.112 23.005.306 1.08.537 2.17.63 3.2.45 4.95 1.8 21.75 1.8 21.75 22.01 9.838 41.158 9.154 63.838-.45 0 0-10.498-15.947-11.502-30.38z" fill="#B4C7FF"/>
        <path d="M114.948 79.179c.693-2.125-1.107-6.175-2.457-6.175-2.25 0-3.426 4.35-2.7 6.3.734 1.975 4.706 1.262 5.157-.125zM76.234 130.86s3.843-1.788 2.957-3.856c-1.35-3.15-6.268-4.591-6.268-4.591M104.825 142.737s2.716-4.933 2.716-11.233" stroke="#FFF" stroke-width=".5"/>
        <path d="M183.78 49.753c0-2.232-1.82-4.041-4.063-4.041-2.244 0-4.064 1.81-4.064 4.04 0 2.232 1.82 4.042 4.064 4.042 2.244 0 4.064-1.81 4.064-4.041" fill="#FFE05B"/>
    </g>
</svg>
